solid OpenSCAD_Model
  facet normal -0 0 1
    outer loop
      vertex -134 134 268
      vertex 134 -134 268
      vertex 134 134 268
    endloop
  endfacet
  facet normal 0 0 1
    outer loop
      vertex 134 -134 268
      vertex -134 134 268
      vertex -134 -134 268
    endloop
  endfacet
  facet normal 0 0 -1
    outer loop
      vertex -134 -134 0
      vertex 134 134 0
      vertex 134 -134 0
    endloop
  endfacet
  facet normal -0 0 -1
    outer loop
      vertex 134 134 0
      vertex -134 -134 0
      vertex -134 134 0
    endloop
  endfacet
  facet normal 0 -1 0
    outer loop
      vertex -134 -134 0
      vertex 134 -134 268
      vertex -134 -134 268
    endloop
  endfacet
  facet normal 0 -1 -0
    outer loop
      vertex 134 -134 268
      vertex -134 -134 0
      vertex 134 -134 0
    endloop
  endfacet
  facet normal 1 -0 0
    outer loop
      vertex 134 -134 268
      vertex 134 134 0
      vertex 134 134 268
    endloop
  endfacet
  facet normal 1 0 0
    outer loop
      vertex 134 134 0
      vertex 134 -134 268
      vertex 134 -134 0
    endloop
  endfacet
  facet normal 0 1 -0
    outer loop
      vertex 134 134 0
      vertex -134 134 268
      vertex 134 134 268
    endloop
  endfacet
  facet normal 0 1 0
    outer loop
      vertex -134 134 268
      vertex 134 134 0
      vertex -134 134 0
    endloop
  endfacet
  facet normal -1 0 0
    outer loop
      vertex -134 -134 0
      vertex -134 134 268
      vertex -134 134 0
    endloop
  endfacet
  facet normal -1 -0 0
    outer loop
      vertex -134 134 268
      vertex -134 -134 0
      vertex -134 -134 268
    endloop
  endfacet
endsolid OpenSCAD_Model
