solid OpenSCAD_Model
  facet normal -0 0 1
    outer loop
      vertex -234 234 468
      vertex 234 -234 468
      vertex 234 234 468
    endloop
  endfacet
  facet normal 0 0 1
    outer loop
      vertex 234 -234 468
      vertex -234 234 468
      vertex -234 -234 468
    endloop
  endfacet
  facet normal 0 0 -1
    outer loop
      vertex -234 -234 0
      vertex 234 234 0
      vertex 234 -234 0
    endloop
  endfacet
  facet normal -0 0 -1
    outer loop
      vertex 234 234 0
      vertex -234 -234 0
      vertex -234 234 0
    endloop
  endfacet
  facet normal 0 -1 0
    outer loop
      vertex -234 -234 0
      vertex 234 -234 468
      vertex -234 -234 468
    endloop
  endfacet
  facet normal 0 -1 -0
    outer loop
      vertex 234 -234 468
      vertex -234 -234 0
      vertex 234 -234 0
    endloop
  endfacet
  facet normal 1 -0 0
    outer loop
      vertex 234 -234 468
      vertex 234 234 0
      vertex 234 234 468
    endloop
  endfacet
  facet normal 1 0 0
    outer loop
      vertex 234 234 0
      vertex 234 -234 468
      vertex 234 -234 0
    endloop
  endfacet
  facet normal 0 1 -0
    outer loop
      vertex 234 234 0
      vertex -234 234 468
      vertex 234 234 468
    endloop
  endfacet
  facet normal 0 1 0
    outer loop
      vertex -234 234 468
      vertex 234 234 0
      vertex -234 234 0
    endloop
  endfacet
  facet normal -1 0 0
    outer loop
      vertex -234 -234 0
      vertex -234 234 468
      vertex -234 234 0
    endloop
  endfacet
  facet normal -1 -0 0
    outer loop
      vertex -234 234 468
      vertex -234 -234 0
      vertex -234 -234 468
    endloop
  endfacet
endsolid OpenSCAD_Model
