solid OpenSCAD_Model
  facet normal -0 0 1
    outer loop
      vertex -235.5 235.5 471
      vertex 235.5 -235.5 471
      vertex 235.5 235.5 471
    endloop
  endfacet
  facet normal 0 0 1
    outer loop
      vertex 235.5 -235.5 471
      vertex -235.5 235.5 471
      vertex -235.5 -235.5 471
    endloop
  endfacet
  facet normal 0 0 -1
    outer loop
      vertex -235.5 -235.5 0
      vertex 235.5 235.5 0
      vertex 235.5 -235.5 0
    endloop
  endfacet
  facet normal -0 0 -1
    outer loop
      vertex 235.5 235.5 0
      vertex -235.5 -235.5 0
      vertex -235.5 235.5 0
    endloop
  endfacet
  facet normal 0 -1 0
    outer loop
      vertex -235.5 -235.5 0
      vertex 235.5 -235.5 471
      vertex -235.5 -235.5 471
    endloop
  endfacet
  facet normal 0 -1 -0
    outer loop
      vertex 235.5 -235.5 471
      vertex -235.5 -235.5 0
      vertex 235.5 -235.5 0
    endloop
  endfacet
  facet normal 1 -0 0
    outer loop
      vertex 235.5 -235.5 471
      vertex 235.5 235.5 0
      vertex 235.5 235.5 471
    endloop
  endfacet
  facet normal 1 0 0
    outer loop
      vertex 235.5 235.5 0
      vertex 235.5 -235.5 471
      vertex 235.5 -235.5 0
    endloop
  endfacet
  facet normal 0 1 -0
    outer loop
      vertex 235.5 235.5 0
      vertex -235.5 235.5 471
      vertex 235.5 235.5 471
    endloop
  endfacet
  facet normal 0 1 0
    outer loop
      vertex -235.5 235.5 471
      vertex 235.5 235.5 0
      vertex -235.5 235.5 0
    endloop
  endfacet
  facet normal -1 0 0
    outer loop
      vertex -235.5 -235.5 0
      vertex -235.5 235.5 471
      vertex -235.5 235.5 0
    endloop
  endfacet
  facet normal -1 -0 0
    outer loop
      vertex -235.5 235.5 471
      vertex -235.5 -235.5 0
      vertex -235.5 -235.5 471
    endloop
  endfacet
endsolid OpenSCAD_Model
