solid tetrahedron
	facet normal 0.57735027 0.57735027 0.57735027
		outer loop
			vertex 10000.0 0 0
			vertex 0 10000.0 0
			vertex 0 0 10000.0
		endloop
	endfacet
	facet normal 0 -1 0
		outer loop
			vertex 0 0 0
			vertex 10000.0 0 0
			vertex 0 0 10000.0
		endloop
	endfacet
	facet normal -1 0 0
		outer loop
			vertex 0 0 0
			vertex 0 0 10000.0
			vertex 0 10000.0 0
		endloop
	endfacet
	facet normal 0 0 -9999999.9
		outer loop
			vertex 0 0 0
			vertex 0 10000.0 0
			vertex 10000.0 0 0
		endloop
	endfacet
endsolid tetrahedron
